<svg width="742" height="742" viewBox="0 0 742 742" fill="none" xmlns="http://www.w3.org/2000/svg">
<g clip-path="url(#paint0_diamond_7337_32487_clip_path)" data-figma-skip-parse="true"><g transform="matrix(0.192286 -0.0340658 0.0340658 0.192286 165.981 407.033)"><rect x="0" y="0" width="1907.63" height="842.464" fill="url(#paint0_diamond_7337_32487)" opacity="1" shape-rendering="crispEdges"/><rect x="0" y="0" width="1907.63" height="842.464" transform="scale(1 -1)" fill="url(#paint0_diamond_7337_32487)" opacity="1" shape-rendering="crispEdges"/><rect x="0" y="0" width="1907.63" height="842.464" transform="scale(-1 1)" fill="url(#paint0_diamond_7337_32487)" opacity="1" shape-rendering="crispEdges"/><rect x="0" y="0" width="1907.63" height="842.464" transform="scale(-1)" fill="url(#paint0_diamond_7337_32487)" opacity="1" shape-rendering="crispEdges"/></g></g><path d="M340.56 216.112C340.482 215.714 340.403 215.316 340.325 214.918C326.98 217.479 313.965 221.77 301.701 227.656C276.481 239.723 254.55 258.636 238.892 281.874C215.429 316.335 206.466 360.322 214.62 401.299C222.476 442.332 247.344 479.788 282.151 502.966C291.628 509.328 301.792 514.666 312.409 518.856C340.637 530.046 372.097 532.89 401.865 526.939L403.406 526.637L403.103 525.092C392.86 473.457 382.566 421.831 372.222 370.215C364.537 331.869 356.825 293.527 349.085 255.192C346.406 241.926 343.725 228.662 341.04 215.397C340.642 215.476 340.244 215.554 339.846 215.633C342.398 228.923 344.954 242.213 347.513 255.502C354.908 293.906 362.331 332.304 369.781 370.697C379.81 422.375 389.889 474.043 400.018 525.701L401.256 523.854C372.062 529.622 341.255 526.799 313.601 515.838C303.2 511.733 293.241 506.508 283.95 500.282C249.832 477.602 225.374 440.976 217.502 400.731C209.345 360.544 217.886 317.269 240.775 283.136C256.05 260.124 277.543 241.268 302.401 229.098C314.488 223.162 327.344 218.786 340.56 216.112ZM340.325 214.918L340.56 216.112L339.846 215.633L341.04 215.397L340.925 214.803L340.325 214.918Z" data-figma-gradient-fill="{&#34;type&#34;:&#34;GRADIENT_DIAMOND&#34;,&#34;stops&#34;:[{&#34;color&#34;:{&#34;r&#34;:0.0,&#34;g&#34;:0.086274512112140656,&#34;b&#34;:0.32941177487373352,&#34;a&#34;:1.0},&#34;position&#34;:0.50827747583389282},{&#34;color&#34;:{&#34;r&#34;:0.0,&#34;g&#34;:0.086274512112140656,&#34;b&#34;:0.32941177487373352,&#34;a&#34;:0.0},&#34;position&#34;:1.0}],&#34;stopsVar&#34;:[{&#34;color&#34;:{&#34;r&#34;:0.0,&#34;g&#34;:0.086274512112140656,&#34;b&#34;:0.32941177487373352,&#34;a&#34;:1.0},&#34;position&#34;:0.50827747583389282},{&#34;color&#34;:{&#34;r&#34;:0.0,&#34;g&#34;:0.086274512112140656,&#34;b&#34;:0.32941177487373352,&#34;a&#34;:0.0},&#34;position&#34;:1.0}],&#34;transform&#34;:{&#34;m00&#34;:384.57189941406250,&#34;m01&#34;:68.131683349609375,&#34;m02&#34;:-60.370914459228516,&#34;m10&#34;:-68.131683349609375,&#34;m11&#34;:384.57189941406250,&#34;m12&#34;:248.81330871582031},&#34;opacity&#34;:1.0,&#34;blendMode&#34;:&#34;NORMAL&#34;,&#34;visible&#34;:true}"/>
<g clip-path="url(#paint1_diamond_7337_32487_clip_path)" data-figma-skip-parse="true"><g transform="matrix(-0.190821 0.0414945 0.0414945 0.190821 584.553 326.454)"><rect x="0" y="0" width="1907.63" height="842.464" fill="url(#paint1_diamond_7337_32487)" opacity="1" shape-rendering="crispEdges"/><rect x="0" y="0" width="1907.63" height="842.464" transform="scale(1 -1)" fill="url(#paint1_diamond_7337_32487)" opacity="1" shape-rendering="crispEdges"/><rect x="0" y="0" width="1907.63" height="842.464" transform="scale(-1 1)" fill="url(#paint1_diamond_7337_32487)" opacity="1" shape-rendering="crispEdges"/><rect x="0" y="0" width="1907.63" height="842.464" transform="scale(-1)" fill="url(#paint1_diamond_7337_32487)" opacity="1" shape-rendering="crispEdges"/></g></g><path d="M350.556 216.117C350.477 215.719 350.399 215.321 350.32 214.923C363.638 212.225 377.308 211.253 390.888 212.042C418.802 213.629 446.271 222.799 469.58 238.351C504.37 261.323 529.364 298.613 537.379 339.617C545.691 380.561 536.908 424.654 513.507 459.311C507.155 468.795 499.779 477.593 491.548 485.501C469.683 506.57 441.659 521.147 411.861 526.944L410.32 527.25L410.013 525.706C399.884 474.047 389.806 422.379 379.777 370.701C372.326 332.309 364.903 293.91 357.508 255.507C354.949 242.218 352.394 228.928 349.841 215.638C350.239 215.559 350.637 215.481 351.035 215.402C353.72 228.666 356.402 241.931 359.08 255.196C366.82 293.532 374.533 331.873 382.218 370.22C392.562 421.836 402.855 473.461 413.099 525.097L411.252 523.859C440.45 518.11 467.879 503.801 489.3 483.161C497.363 475.414 504.592 466.799 510.824 457.512C533.775 423.576 542.496 380.406 534.497 340.186C526.784 299.911 502.452 263.12 468.317 240.234C445.448 224.745 418.406 215.462 390.788 213.641C377.353 212.739 363.798 213.572 350.556 216.117ZM350.32 214.923L350.556 216.117L351.035 215.402L349.841 215.638L349.721 215.044L350.32 214.923Z" data-figma-gradient-fill="{&#34;type&#34;:&#34;GRADIENT_DIAMOND&#34;,&#34;stops&#34;:[{&#34;color&#34;:{&#34;r&#34;:0.0,&#34;g&#34;:0.086274512112140656,&#34;b&#34;:0.32941177487373352,&#34;a&#34;:1.0},&#34;position&#34;:0.50827747583389282},{&#34;color&#34;:{&#34;r&#34;:0.0,&#34;g&#34;:0.086274512112140656,&#34;b&#34;:0.32941177487373352,&#34;a&#34;:0.0},&#34;position&#34;:1.0}],&#34;stopsVar&#34;:[{&#34;color&#34;:{&#34;r&#34;:0.0,&#34;g&#34;:0.086274512112140656,&#34;b&#34;:0.32941177487373352,&#34;a&#34;:1.0},&#34;position&#34;:0.50827747583389282},{&#34;color&#34;:{&#34;r&#34;:0.0,&#34;g&#34;:0.086274512112140656,&#34;b&#34;:0.32941177487373352,&#34;a&#34;:0.0},&#34;position&#34;:1.0}],&#34;transform&#34;:{&#34;m00&#34;:-381.64157104492188,&#34;m01&#34;:82.988990783691406,&#34;m02&#34;:733.87921142578125,&#34;m10&#34;:82.988990783691406,&#34;m11&#34;:381.64157104492188,&#34;m12&#34;:94.139167785644531},&#34;opacity&#34;:1.0,&#34;blendMode&#34;:&#34;NORMAL&#34;,&#34;visible&#34;:true}"/>
<defs>
<clipPath id="paint0_diamond_7337_32487_clip_path"><path d="M340.56 216.112C340.482 215.714 340.403 215.316 340.325 214.918C326.98 217.479 313.965 221.77 301.701 227.656C276.481 239.723 254.55 258.636 238.892 281.874C215.429 316.335 206.466 360.322 214.62 401.299C222.476 442.332 247.344 479.788 282.151 502.966C291.628 509.328 301.792 514.666 312.409 518.856C340.637 530.046 372.097 532.89 401.865 526.939L403.406 526.637L403.103 525.092C392.86 473.457 382.566 421.831 372.222 370.215C364.537 331.869 356.825 293.527 349.085 255.192C346.406 241.926 343.725 228.662 341.04 215.397C340.642 215.476 340.244 215.554 339.846 215.633C342.398 228.923 344.954 242.213 347.513 255.502C354.908 293.906 362.331 332.304 369.781 370.697C379.81 422.375 389.889 474.043 400.018 525.701L401.256 523.854C372.062 529.622 341.255 526.799 313.601 515.838C303.2 511.733 293.241 506.508 283.95 500.282C249.832 477.602 225.374 440.976 217.502 400.731C209.345 360.544 217.886 317.269 240.775 283.136C256.05 260.124 277.543 241.268 302.401 229.098C314.488 223.162 327.344 218.786 340.56 216.112ZM340.325 214.918L340.56 216.112L339.846 215.633L341.04 215.397L340.925 214.803L340.325 214.918Z"/></clipPath><clipPath id="paint1_diamond_7337_32487_clip_path"><path d="M350.556 216.117C350.477 215.719 350.399 215.321 350.32 214.923C363.638 212.225 377.308 211.253 390.888 212.042C418.802 213.629 446.271 222.799 469.58 238.351C504.37 261.323 529.364 298.613 537.379 339.617C545.691 380.561 536.908 424.654 513.507 459.311C507.155 468.795 499.779 477.593 491.548 485.501C469.683 506.57 441.659 521.147 411.861 526.944L410.32 527.25L410.013 525.706C399.884 474.047 389.806 422.379 379.777 370.701C372.326 332.309 364.903 293.91 357.508 255.507C354.949 242.218 352.394 228.928 349.841 215.638C350.239 215.559 350.637 215.481 351.035 215.402C353.72 228.666 356.402 241.931 359.08 255.196C366.82 293.532 374.533 331.873 382.218 370.22C392.562 421.836 402.855 473.461 413.099 525.097L411.252 523.859C440.45 518.11 467.879 503.801 489.3 483.161C497.363 475.414 504.592 466.799 510.824 457.512C533.775 423.576 542.496 380.406 534.497 340.186C526.784 299.911 502.452 263.12 468.317 240.234C445.448 224.745 418.406 215.462 390.788 213.641C377.353 212.739 363.798 213.572 350.556 216.117ZM350.32 214.923L350.556 216.117L351.035 215.402L349.841 215.638L349.721 215.044L350.32 214.923Z"/></clipPath><linearGradient id="paint0_diamond_7337_32487" x1="0" y1="0" x2="500" y2="500" gradientUnits="userSpaceOnUse">
<stop offset="0.508277" stop-color="#001654"/>
<stop offset="1" stop-color="#001654" stop-opacity="0"/>
</linearGradient>
<linearGradient id="paint1_diamond_7337_32487" x1="0" y1="0" x2="500" y2="500" gradientUnits="userSpaceOnUse">
<stop offset="0.508277" stop-color="#001654"/>
<stop offset="1" stop-color="#001654" stop-opacity="0"/>
</linearGradient>
</defs>
</svg>
